<?xml version="1.0" encoding="utf-8"?>
<!-- Generator: Adobe Illustrator 18.0.0, SVG Export Plug-In . SVG Version: 6.00 Build 0)  -->
<!DOCTYPE svg PUBLIC "-//W3C//DTD SVG 1.1//EN" "http://www.w3.org/Graphics/SVG/1.1/DTD/svg11.dtd">
<svg version="1.1" id="Calque_1" xmlns="http://www.w3.org/2000/svg" xmlns:xlink="http://www.w3.org/1999/xlink" x="0px" y="0px"
	 viewBox="0 0 71.1 91.1" enable-background="new 0 0 71.1 91.1" xml:space="preserve">
<path d="M35.6,0C15.9,0,0,15.9,0,35.6c0,6.1,1.6,11.9,4.3,16.9c0.1,0.2,0.1,0.4,0.3,0.6c6,10.4,31,38.1,31,38.1s28-31.2,31-38.1
	c0-0.1,0-0.1,0.1-0.2c2.9-5.1,4.5-11,4.5-17.3C71.1,15.9,55.2,0,35.6,0z M49.3,51.6H21.8V46h27.5L49.3,51.6L49.3,51.6z M49.3,41.8
	H21.8v-5.6h27.5L49.3,41.8L49.3,41.8z M49.3,31.9H21.8v-5.6h27.5L49.3,31.9L49.3,31.9z"/>
</svg>
