<?xml version="1.0" encoding="utf-8"?>
<!-- Generator: Adobe Illustrator 17.0.0, SVG Export Plug-In . SVG Version: 6.00 Build 0)  -->
<!DOCTYPE svg PUBLIC "-//W3C//DTD SVG 1.1//EN" "http://www.w3.org/Graphics/SVG/1.1/DTD/svg11.dtd">
<svg version="1.1" id="Calque_1" xmlns="http://www.w3.org/2000/svg" xmlns:xlink="http://www.w3.org/1999/xlink" x="0px" y="0px"
	 width="94.5px" height="91.167px" viewBox="0 0 94.5 91.167" enable-background="new 0 0 94.5 91.167" xml:space="preserve">
<g>
	<path d="M25,0C10.984,0-0.378,11.362-0.378,25.378c0,4.379,1.112,8.497,3.064,12.092c0.042,0.138,0.102,0.28,0.185,0.425
		c4.254,7.442,22.125,27.159,22.125,27.159s19.997-22.259,22.125-27.159c0.023-0.054,0.038-0.107,0.049-0.16
		c2.043-3.657,3.209-7.871,3.209-12.357C50.378,11.362,39.016,0,25,0z M32.246,35.679l-7.345-3.861l-7.345,3.861l1.403-8.179
		l-5.942-5.792l8.212-1.193l3.672-7.441l3.672,7.441l8.212,1.193l-5.942,5.792L32.246,35.679z"/>
	<path fill="none" stroke="#010101" stroke-width="4.6999" stroke-miterlimit="10" stroke-dasharray="9.3998,4.6999" d="
		M92.02,55.348c0,18.51-15.005,33.516-33.516,33.516S24.989,73.858,24.989,55.348c0-8.909,4.544-15.51,10.215-21.513
		c6.11-6.469,13.7-12.002,23.301-12.002C77.015,21.832,92.02,36.837,92.02,55.348z"/>
	<g>
		
			<rect x="48.457" y="53.335" transform="matrix(0.7071 0.7071 -0.7071 0.7071 56.312 -25.1742)" fill="#010101" width="20.175" height="4.106"/>
		
			<rect x="48.379" y="53.255" transform="matrix(0.7071 -0.7071 0.7071 0.7071 -21.9845 57.5412)" fill="#010101" width="20.175" height="4.106"/>
	</g>
</g>
</svg>
