<?xml version="1.0" encoding="utf-8"?>
<!-- Generator: Adobe Illustrator 17.0.0, SVG Export Plug-In . SVG Version: 6.00 Build 0)  -->
<!DOCTYPE svg PUBLIC "-//W3C//DTD SVG 1.1//EN" "http://www.w3.org/Graphics/SVG/1.1/DTD/svg11.dtd">
<svg version="1.1" id="Calque_1" xmlns="http://www.w3.org/2000/svg" xmlns:xlink="http://www.w3.org/1999/xlink" x="0px" y="0px"
	 width="107.219px" height="90.829px" viewBox="0 0 107.219 90.829" enable-background="new 0 0 107.219 90.829"
	 xml:space="preserve">
<g>
	<rect x="77.404" y="23.242" fill="#020202" width="29.815" height="6.068"/>
	<rect x="77.404" y="33.92" fill="#020202" width="29.815" height="6.068"/>
	<rect x="77.404" y="44.597" fill="#020202" width="29.815" height="6.068"/>
	<g>
		<path fill="#020202" d="M57.302,60.19l-0.687-0.155l-0.584,0.391c-7.471,5.01-17.091,5.01-24.562,0l-0.584-0.391L30.2,60.19
			C12.136,64.271,0,75.925,0,89.193v1.636h87.5v-1.636C87.5,75.925,75.364,64.271,57.302,60.19z"/>
		<path fill="#020202" d="M29.647,56.604c4.275,2.865,9.152,4.382,14.103,4.382s9.826-1.516,14.101-4.382
			c0.36-0.24,0.705-0.502,1.052-0.761h12.01V34.454c0.152-1.308,0.234-2.64,0.234-3.961C71.146,13.679,58.857,0,43.752,0
			C30.041,0,18.62,11.072,16.654,25.995h-0.299v4.498v25.35h12.242C28.944,56.101,29.289,56.363,29.647,56.604z M19.626,29.266
			H67.82c0.016,0.409,0.054,0.813,0.054,1.227c0,1.232-0.075,2.475-0.222,3.695c-0.113,0.944-0.271,1.876-0.473,2.793
			c-0.602,2.753-1.585,5.373-2.9,7.769c-1.752,3.194-4.095,5.989-6.907,8.166l-0.038,0.031c-0.425,0.327-0.859,0.644-1.304,0.94
			c-7.471,5.011-17.091,5.01-24.562,0c-0.458-0.307-0.904-0.631-1.343-0.971c-6.575-5.091-10.5-13.473-10.5-22.421
			C19.626,30.494,19.626,29.266,19.626,29.266z"/>
	</g>
</g>
</svg>
